<svg xmlns="http://www.w3.org/2000/svg" viewBox="0 0 184.9 150.1" height="150.1" width="184.9"><path d="M79 0C66.3 0 55.2 8.8 52.3 21.3l-.7 3.2h-30A21.5 21.5 0 0 0 0 45.9v81.6a22.6 22.6 0 0 0 22.6 22.6h139.8a22.6 22.6 0 0 0 22.5-22.6V46c0-11.8-9.6-21.4-21.4-21.4h-30l-.8-3.2c-3-12.5-14-21.3-26.9-21.3zm0 9.2h26.8c8.6 0 16 5.9 17.9 14.2l1.5 6.7c.5 2 2.4 3.6 4.5 3.6h33.7c6.8 0 12.3 5.5 12.3 12.2v81.6c0 7.4-6 13.4-13.4 13.4H22.6c-7.4 0-13.4-6-13.4-13.4V46c0-6.7 5.5-12.2 12.3-12.2h33.7c2.1 0 4-1.5 4.5-3.6l1.5-6.7c2-8.3 9.3-14.2 17.9-14.2zm-47.7 38a6.2 6.2 0 0 0-6.2 6.2 6.2 6.2 0 0 0 6.2 6.2 6.2 6.2 0 0 0 6.2-6.2 6.2 6.2 0 0 0-6.2-6.1zm61.2 1.5a38.9 38.9 0 1 0 0 77.7 38.9 38.9 0 0 0 0-77.7zm0 9.2a29.6 29.6 0 1 1-.1 59.3 29.6 29.6 0 0 1 0-59.3z" fill="#737b80"/></svg>
